<mxfile host="Electron" modified="2024-10-02T13:02:57.601Z" agent="Mozilla/5.0 (Windows NT 10.0; Win64; x64) AppleWebKit/537.36 (KHTML, like Gecko) draw.io/24.2.5 Chrome/120.0.6099.109 Electron/28.1.0 Safari/537.36" etag="_ohOkoBv9ALO_8n2mwv4" version="24.2.5" type="device">
  <diagram name="Page-1" id="aePwLMjBWU0rhitWKUwR">
    <mxGraphModel dx="581" dy="341" grid="1" gridSize="10" guides="1" tooltips="1" connect="1" arrows="1" fold="1" page="1" pageScale="1" pageWidth="827" pageHeight="1169" math="0" shadow="0">
      <root>
        <mxCell id="0" />
        <mxCell id="1" parent="0" />
        <mxCell id="VZkufhgnUgjgg67jppFy-12" value="" style="group" vertex="1" connectable="0" parent="1">
          <mxGeometry x="80" y="40" width="240" height="200" as="geometry" />
        </mxCell>
        <mxCell id="VZkufhgnUgjgg67jppFy-1" value="&lt;font face=&quot;宋体&quot;&gt;硬件层：标准外设库&lt;/font&gt;" style="rounded=0;whiteSpace=wrap;html=1;strokeColor=default;" vertex="1" parent="VZkufhgnUgjgg67jppFy-12">
          <mxGeometry x="20" y="160" width="200" height="40" as="geometry" />
        </mxCell>
        <mxCell id="VZkufhgnUgjgg67jppFy-5" value="" style="group" vertex="1" connectable="0" parent="VZkufhgnUgjgg67jppFy-12">
          <mxGeometry x="20" y="60" width="160" height="80" as="geometry" />
        </mxCell>
        <mxCell id="VZkufhgnUgjgg67jppFy-3" value="&lt;font face=&quot;宋体&quot;&gt;驱动层：设备无关接口&lt;/font&gt;" style="rounded=0;whiteSpace=wrap;html=1;strokeColor=default;" vertex="1" parent="VZkufhgnUgjgg67jppFy-5">
          <mxGeometry width="160" height="40" as="geometry" />
        </mxCell>
        <mxCell id="VZkufhgnUgjgg67jppFy-4" value="&lt;font face=&quot;宋体&quot;&gt;驱动层：设备相关实现&lt;/font&gt;" style="rounded=0;whiteSpace=wrap;html=1;strokeColor=default;" vertex="1" parent="VZkufhgnUgjgg67jppFy-5">
          <mxGeometry y="40" width="160" height="40" as="geometry" />
        </mxCell>
        <mxCell id="VZkufhgnUgjgg67jppFy-6" style="edgeStyle=orthogonalEdgeStyle;rounded=0;orthogonalLoop=1;jettySize=auto;html=1;entryX=0.396;entryY=0.021;entryDx=0;entryDy=0;entryPerimeter=0;" edge="1" parent="VZkufhgnUgjgg67jppFy-12" source="VZkufhgnUgjgg67jppFy-4" target="VZkufhgnUgjgg67jppFy-1">
          <mxGeometry relative="1" as="geometry" />
        </mxCell>
        <mxCell id="VZkufhgnUgjgg67jppFy-8" style="edgeStyle=orthogonalEdgeStyle;rounded=0;orthogonalLoop=1;jettySize=auto;html=1;" edge="1" parent="VZkufhgnUgjgg67jppFy-12" source="VZkufhgnUgjgg67jppFy-7">
          <mxGeometry relative="1" as="geometry">
            <mxPoint x="120" y="60" as="targetPoint" />
            <Array as="points" />
          </mxGeometry>
        </mxCell>
        <mxCell id="VZkufhgnUgjgg67jppFy-7" value="&lt;font face=&quot;宋体&quot;&gt;业务层&lt;/font&gt;" style="rounded=0;whiteSpace=wrap;html=1;strokeColor=default;" vertex="1" parent="VZkufhgnUgjgg67jppFy-12">
          <mxGeometry x="20" width="200" height="40" as="geometry" />
        </mxCell>
        <mxCell id="VZkufhgnUgjgg67jppFy-9" style="edgeStyle=orthogonalEdgeStyle;rounded=0;orthogonalLoop=1;jettySize=auto;html=1;entryX=1;entryY=0;entryDx=0;entryDy=0;exitX=1;exitY=1;exitDx=0;exitDy=0;" edge="1" parent="VZkufhgnUgjgg67jppFy-12" source="VZkufhgnUgjgg67jppFy-7" target="VZkufhgnUgjgg67jppFy-1">
          <mxGeometry relative="1" as="geometry">
            <mxPoint x="195.39999999999998" y="40.000000000000014" as="sourcePoint" />
            <mxPoint x="195.39999999999998" y="160.00000000000003" as="targetPoint" />
          </mxGeometry>
        </mxCell>
        <mxCell id="VZkufhgnUgjgg67jppFy-10" value="&lt;font face=&quot;宋体&quot;&gt;性&lt;br&gt;能&lt;br&gt;敏&lt;br&gt;感&lt;/font&gt;" style="text;html=1;align=center;verticalAlign=middle;whiteSpace=wrap;rounded=0;strokeColor=default;dashed=1;dashPattern=1 4;" vertex="1" parent="VZkufhgnUgjgg67jppFy-12">
          <mxGeometry x="220" width="20" height="200" as="geometry" />
        </mxCell>
        <mxCell id="VZkufhgnUgjgg67jppFy-11" value="&lt;font face=&quot;宋体&quot;&gt;通&lt;br&gt;用&lt;br&gt;功&lt;br&gt;能&lt;/font&gt;" style="text;html=1;align=center;verticalAlign=middle;whiteSpace=wrap;rounded=0;strokeColor=default;dashed=1;dashPattern=1 4;" vertex="1" parent="VZkufhgnUgjgg67jppFy-12">
          <mxGeometry width="20" height="100" as="geometry" />
        </mxCell>
      </root>
    </mxGraphModel>
  </diagram>
</mxfile>
